<?xml version="1.0" encoding="utf-8"?>
<!-- Generator: Adobe Illustrator 16.0.0, SVG Export Plug-In . SVG Version: 6.00 Build 0)  -->
<!DOCTYPE svg PUBLIC "-//W3C//DTD SVG 1.1//EN" "http://www.w3.org/Graphics/SVG/1.1/DTD/svg11.dtd">
<svg version="1.1" id="Capa_1" xmlns="http://www.w3.org/2000/svg" xmlns:xlink="http://www.w3.org/1999/xlink" x="0px" y="0px"
	 width="421.299px" height="124.095px" viewBox="0 0 421.299 124.095" enable-background="new 0 0 421.299 124.095"
	 xml:space="preserve">
<g>
	<path fill="#665E4A" d="M97.553,58.369l-0.146,2.615l0.292,8.339v2.78l-0.292,5.559l-0.438,4.087l-0.439,2.452l-0.877,3.762
		L94.92,90.25l-1.023,3.434l-1.024,2.452l-1.17,2.453l-1.316,2.452l-2.193,3.106l-1.463,2.125l-2.193,2.617l-1.609,1.798
		l-2.486,2.452l-1.755,1.472l-2.779,1.962l-1.901,1.309l-3.071,1.635l-2.047,0.98l-3.364,1.145l-2.048,0.654l-3.363,0.654
		l-2.194,0.49l-3.656,0.326l-4.973,0.328l-2.486-0.164l-3.364-0.164l-7.459-1.145l-5.411-1.307l-5.119-1.799l-5.265-2.126
		l-2.779-1.635l-1.901-1.308l-2.633-2.289l-1.608-1.635l-2.194-2.779l-1.315-1.799l-1.756-3.107l-1.023-2.125L3.51,97.281
		l-0.73-2.452l-1.463-5.231l-0.585-4.088l-0.438-2.616l-0.146-3.761L0,76.353v-2.779l0.585-2.125l1.608-0.654l2.194-0.164h6.581
		l6.582,0.328l2.34-0.164l4.388-0.49l2.34-0.164l1.756,0.981l0.73,1.798l0.146,2.126l0.146,1.145l0.438,2.289l1.024,3.761
		l0.877,2.289l1.024,2.125l1.462,2.125l2.779,2.779l2.047,1.473l2.194,1.145l2.34,0.653l3.511,0.491l2.193-0.164l4.388-0.98
		l2.048-0.818l2.047-1.145l2.048-1.308l2.779-2.616l1.608-1.962l1.316-2.452l0.878-2.453l0.73-3.597l0.293-2.452l0.146-3.761V69.16
		l0.146-9.811v-2.615l0.146-9.974v-2.616l0.146-9.81l0.146-2.289l-1.17-0.654l-6.729,0.49h-2.34l-6.581-0.49h-2.341l-4.68,0.49
		h-2.048l-1.755-0.817l-0.878-1.962v-0.981l-0.146-2.453l0.438-6.867v-2.616l-0.438-7.685l0.146-2.452l0.878-1.798l1.755-0.654
		h3.071l5.851,0.327h2.34l8.775-0.817l2.34-0.164l8.63,0.327h13.455l6.728-0.327h2.194l1.462,0.49l0.585,0.981l0.146,1.799
		l0.146,2.289l0.146,2.453l0.146,3.761l-0.146,2.616l-0.439,8.175v2.616l0.439,8.338l0.146,2.616l0.146,8.338l-0.146,2.617
		L97.553,58.369z"/>
	<path fill="#665E4A" d="M195.339,84.365l-0.146,2.779l-0.293,2.779l-0.438,2.616l-0.731,3.597l-0.731,2.289l-1.316,3.27
		l-1.023,2.126l-1.755,2.943l-1.463,1.962l-1.755,1.962l-1.755,1.798l-2.926,2.126l-1.9,1.472l-2.194,1.308l-2.048,1.145
		l-3.363,1.308l-4.388,1.636l-2.341,0.49l-3.656,0.653l-2.193,0.328l-3.218,0.326l-2.048,0.164l-3.363,0.163l-7.021,0.491h-3.218
		l-2.048-0.164l-3.363-0.327l-2.194-0.327l-2.486-0.49l-2.193-0.817l-3.218-1.145l-2.048-1.145l-2.193-1.145l-2.048-1.145
		l-1.901-1.308l-4.68-3.598l-1.756-1.635l-2.632-2.289l-1.756-1.635l-1.608-1.799l-1.17-1.471l-0.146-1.145l0.731-1.472l0.585-0.817
		l1.463-1.799l4.095-4.25l1.316-1.799l2.486-4.252l1.316-1.798l1.463-1.798l1.608-0.981l1.608,0.327l1.609,1.308l4.68,3.597
		l2.194,1.309l2.047,1.145l3.364,1.799l2.194,0.816l2.34,0.818l2.34,0.49l3.364,0.164l2.34,0.162l9.214-0.653l2.34-0.327
		l1.171-0.326l2.193-0.981l1.901-1.308l1.463-1.636l0.73-1.145l0.878-2.452l-0.146-2.779l-0.292-1.309l-1.17-2.289l-0.731-0.98
		l-1.901-1.635l-1.17-0.49l-2.194-0.981l-2.486-0.654l-2.486-0.49l-13.895-1.472l-4.387-0.98l-2.341-0.654l-3.218-1.309
		l-2.193-0.816l-2.194-1.145l-4.973-2.779l-1.901-1.473l-2.193-1.471l-1.901-1.472l-2.486-2.289l-1.316-2.126l-1.316-2.452
		l-0.877-2.452l-1.024-3.434l-0.438-2.453l-0.438-3.596l-0.293-5.232l0.146-2.616l0.292-3.924l0.439-2.453l0.585-2.125l0.731-2.452
		l1.462-3.597l1.024-2.289l1.17-1.962l1.462-1.798l2.341-2.453l1.901-1.635l1.901-1.472l2.047-1.145l2.779-1.798l4.388-1.962
		l2.193-0.817l3.364-0.654l2.34-0.49l4.388-0.654l3.218-0.654l2.34-0.327L148.392,0h2.34l4.388,0.49l2.193,0.327l1.024,0.327
		l2.34,0.327l4.973,0.981l2.486,0.654l2.34,0.817l2.486,0.817l2.341,0.981l2.193,1.145l2.194,0.981l2.778,1.798l2.048,1.145
		l1.901,1.472l1.316,1.472v1.635l-0.878,1.798l-1.608,3.27l-1.17,1.962l-5.559,8.175l-1.608,2.289l-1.755,1.635l-1.17,0.49
		l-1.024-0.164l-1.462-0.817l-2.194-1.471l-2.193-0.981l-1.024-0.49l-2.193-0.817l-1.17-0.327l-2.486-0.654l-3.364-0.818
		l-2.34-0.163l-3.803-0.327h-3.803l-2.486,0.164l-2.486,0.49l-2.34,0.817l-0.878,0.491l-1.755,1.472l-0.731,0.981l-1.023,2.289
		l-0.293,2.616l0.439,2.125l1.17,2.126l1.608,1.635l1.755,0.98l1.024,0.49l2.193,0.491l3.656,0.49l4.973,0.327l2.486,0.49
		l4.973,1.309l4.681,1.635l3.363,0.817l2.194,0.653l4.095,1.635l2.926,1.473l2.047,1.145l2.048,1.308l1.901,1.308l4.241,3.924
		l1.609,1.963l1.462,1.961l1.756,2.943l1.17,2.125l1.023,2.453l0.585,2.452l0.585,3.597l0.293,2.453L195.339,84.365z"/>
	<path fill="#665E4A" d="M321.408,116.41l0.439,2.289l-1.024,1.799l-1.608,0.818l-1.901,0.326h-2.048l-3.363-0.326l-2.194-0.164
		h-6.581l-9.068,0.654l-1.901-0.654l-0.877-1.309l-0.731-1.798l-4.534-13.733l-1.023-1.636l-1.316-0.327l-1.755-0.163l-8.775-0.653
		h-2.34l-10.97-0.328l-8.775-0.163h-2.193l-2.194,0.163h-6.728l-1.901,0.328l-1.17,0.816l-0.878,1.963l-3.363,11.117l-0.878,2.616
		l-1.608,2.126l-2.194,0.98l-2.34-0.164l-8.482-0.49h-2.341l-9.067,0.654l-1.901,0.164l-1.755-0.981l-1.17-1.799l0.146-2.126
		l0.293-1.307l0.877-2.617l2.048-5.068l0.878-2.452l3.656-9.155l0.877-2.289l3.803-9.156l0.878-2.453l3.364-8.828l0.877-2.453
		l3.949-9.155l0.877-2.289l5.266-13.407l4.095-9.81l1.024-2.616l3.218-7.357l1.023-2.616l2.779-7.521l0.877-2.452l2.633-6.704
		l0.731-1.798l1.462-0.981l2.194-0.491l6.728-0.327h11.408l6.728,0.164l2.486,0.49l1.608,1.308l0.731,2.125l2.048,6.376l0.878,2.452
		l3.656,7.685l0.877,2.289l3.218,8.011l0.878,2.289l2.633,8.338l0.877,2.289l3.218,7.848l0.878,2.289l3.217,8.012l0.878,2.289
		l2.925,8.175l0.878,2.289l4.534,10.138l3.51,7.684l1.023,2.289l3.949,10.301L321.408,116.41z M272.56,70.304l-0.585-2.126
		l-3.218-11.118l-0.731-2.452l-2.925-9.646l-0.731-2.126l-1.463-1.145l-1.901-0.491l-1.608,0.491l-1.463,1.635l-3.949,11.118
		l-0.877,2.452l-3.803,10.954l-0.438,2.453l0.438,1.962l1.608,0.817l2.048,0.326h9.214l6.874,0.491l1.901-0.653l1.17-1.309
		L272.56,70.304z"/>
	<path fill="#665E4A" d="M421.299,84.365l-0.146,2.779l-0.293,2.779l-0.438,2.616l-0.731,3.597l-0.731,2.289l-1.316,3.27
		l-1.023,2.126l-1.755,2.943l-1.463,1.962l-1.755,1.962l-1.755,1.798l-2.926,2.126l-1.901,1.472l-2.193,1.308l-2.048,1.145
		l-3.363,1.308l-4.388,1.636l-2.341,0.49l-3.656,0.653l-2.193,0.328l-3.218,0.326l-2.048,0.164l-3.363,0.163l-7.021,0.491h-3.218
		l-2.048-0.164l-3.363-0.327l-2.194-0.327l-2.486-0.49l-2.193-0.817l-3.218-1.145l-2.048-1.145l-2.193-1.145l-2.048-1.145
		l-1.901-1.308l-4.68-3.598l-1.756-1.635l-2.632-2.289l-1.756-1.635l-1.608-1.799l-1.17-1.471l-0.146-1.145l0.731-1.472l0.585-0.817
		l1.463-1.799l4.095-4.25l1.316-1.799l2.486-4.252l1.316-1.798l1.463-1.798l1.608-0.981l1.608,0.327l1.609,1.308l4.68,3.597
		l2.194,1.309l2.047,1.145l3.364,1.799l2.194,0.816l2.34,0.818l2.34,0.49l3.364,0.164l2.34,0.162l9.214-0.653l2.34-0.327
		l1.171-0.326l2.193-0.981l1.901-1.308l1.463-1.636l0.73-1.145l0.878-2.452l-0.146-2.779l-0.292-1.309l-1.17-2.289l-0.731-0.98
		l-1.901-1.635l-1.17-0.49l-2.194-0.981l-2.486-0.654l-2.486-0.49l-13.895-1.472l-4.387-0.98l-2.341-0.654l-3.218-1.309
		l-2.193-0.816l-2.194-1.145l-4.973-2.779l-1.901-1.473l-2.193-1.471l-1.901-1.472l-2.486-2.289l-1.316-2.126l-1.316-2.452
		l-0.877-2.452l-1.024-3.434l-0.438-2.453l-0.438-3.596l-0.293-5.232l0.146-2.616l0.292-3.924l0.439-2.453l0.585-2.125l0.731-2.452
		l1.462-3.597l1.024-2.289l1.17-1.962l1.462-1.798l2.341-2.453l1.901-1.635l1.901-1.472l2.047-1.145l2.779-1.798l4.388-1.962
		l2.193-0.817l3.364-0.654l2.34-0.49l4.388-0.654l3.218-0.654l2.34-0.327L374.352,0h2.34l4.388,0.49l2.193,0.327l1.024,0.327
		l2.34,0.327l4.973,0.981l2.486,0.654l2.34,0.817l2.486,0.817l2.341,0.981l2.193,1.145l2.194,0.981l2.778,1.798l2.048,1.145
		l1.901,1.472l1.316,1.472v1.635l-0.878,1.798l-1.608,3.27l-1.17,1.962l-5.559,8.175l-1.608,2.289l-1.755,1.635l-1.17,0.49
		l-1.024-0.164l-1.462-0.817l-2.194-1.471l-2.193-0.981l-1.024-0.49l-2.193-0.817l-1.17-0.327l-2.486-0.654l-3.364-0.818
		l-2.34-0.163l-3.803-0.327h-3.803l-2.486,0.164l-2.486,0.49l-2.34,0.817l-0.878,0.491l-1.755,1.472l-0.731,0.981l-1.023,2.289
		l-0.293,2.616l0.439,2.125l1.17,2.126l1.608,1.635l1.755,0.98l1.024,0.49l2.193,0.491l3.656,0.49l4.973,0.327l2.486,0.49
		l4.973,1.309l4.681,1.635l3.363,0.817l2.194,0.653l4.095,1.635l2.926,1.473l2.047,1.145l2.048,1.308l1.901,1.308l4.241,3.924
		l1.609,1.963l1.462,1.961l1.756,2.943l1.17,2.125l1.023,2.453l0.585,2.452l0.585,3.597l0.293,2.453L421.299,84.365z"/>
</g>
</svg>
